<svg width="32" height="33" viewBox="0 0 32 33" fill="none" xmlns="http://www.w3.org/2000/svg">
<path d="M10 30.5C11.1046 30.5 12 29.6046 12 28.5C12 27.3954 11.1046 26.5 10 26.5C8.89543 26.5 8 27.3954 8 28.5C8 29.6046 8.89543 30.5 10 30.5Z" fill="#7A4DAD"/>
<path d="M24 30.5C25.1046 30.5 26 29.6046 26 28.5C26 27.3954 25.1046 26.5 24 26.5C22.8954 26.5 22 27.3954 22 28.5C22 29.6046 22.8954 30.5 24 30.5Z" fill="#7A4DAD"/>
<path d="M28 7.5002H5.82L5 3.3002C4.95325 3.07093 4.82758 2.86531 4.64486 2.71913C4.46214 2.57296 4.23395 2.49549 4 2.5002H0V4.5002H3.18L7 23.7002C7.04675 23.9295 7.17242 24.1351 7.35514 24.2813C7.53786 24.4275 7.76605 24.5049 8 24.5002H26V22.5002H8.82L8 18.5002H26C26.2312 18.5059 26.4571 18.4312 26.6395 18.289C26.8218 18.1468 26.9492 17.9458 27 17.7202L29 8.7202C29.0335 8.57183 29.0327 8.41776 28.9977 8.26974C28.9627 8.12171 28.8944 7.98362 28.798 7.86597C28.7015 7.74833 28.5795 7.65424 28.4413 7.59085C28.303 7.52747 28.1521 7.49647 28 7.5002ZM25.2 16.5002H7.62L6.22 9.5002H26.75L25.2 16.5002Z" fill="#7A4DAD"/>
</svg>
