<svg width="15" height="15" viewBox="0 0 15 15" fill="none" xmlns="http://www.w3.org/2000/svg">
<path d="M1.875 0C1.37772 0 0.900806 0.197544 0.549175 0.549175C0.197544 0.900806 0 1.37772 0 1.875L0 13.125C0 13.6223 0.197544 14.0992 0.549175 14.4508C0.900806 14.8025 1.37772 15 1.875 15H13.125C13.6223 15 14.0992 14.8025 14.4508 14.4508C14.8025 14.0992 15 13.6223 15 13.125V1.875C15 1.37772 14.8025 0.900806 14.4508 0.549175C14.0992 0.197544 13.6223 0 13.125 0L1.875 0ZM11.2781 4.65937C11.4083 4.78945 11.4824 4.96541 11.4843 5.14946C11.4862 5.3335 11.4159 5.51097 11.2884 5.64375L7.54594 10.3219C7.48162 10.3912 7.40399 10.4468 7.31769 10.4853C7.23139 10.5239 7.13819 10.5447 7.04367 10.5465C6.94915 10.5482 6.85525 10.5309 6.76758 10.4955C6.67992 10.4602 6.60028 10.4075 6.53344 10.3406L4.05375 7.86C3.98467 7.79563 3.92926 7.718 3.89083 7.63175C3.8524 7.54551 3.83174 7.4524 3.83007 7.35799C3.8284 7.26358 3.84577 7.1698 3.88113 7.08225C3.9165 6.9947 3.96913 6.91517 4.0359 6.8484C4.10267 6.78163 4.1822 6.729 4.26975 6.69363C4.3573 6.65827 4.45108 6.6409 4.54549 6.64257C4.6399 6.64424 4.73301 6.6649 4.81925 6.70333C4.9055 6.74176 4.98313 6.79717 5.0475 6.86625L7.01063 8.82844L10.2666 4.68C10.3308 4.6106 10.4083 4.55485 10.4945 4.5161C10.5807 4.47734 10.6739 4.45637 10.7684 4.45445C10.8629 4.45252 10.9569 4.46968 11.0446 4.50489C11.1324 4.5401 11.2121 4.59264 11.2791 4.65937H11.2781Z" fill="white"/>
</svg>
