<svg width="8" height="7" viewBox="0 0 8 7" fill="none" xmlns="http://www.w3.org/2000/svg">
<path d="M7.44816 0.205072C7.57838 0.335152 7.6524 0.511106 7.65433 0.695154C7.65626 0.879202 7.58594 1.05667 7.45848 1.18945L3.71598 5.86757C3.65166 5.93685 3.57402 5.99245 3.48773 6.03104C3.40143 6.06963 3.30823 6.09043 3.21371 6.09218C3.11919 6.09393 3.02529 6.0766 2.93762 6.04123C2.84995 6.00586 2.77032 5.95317 2.70348 5.88632L0.223789 3.4057C0.154708 3.34133 0.0992994 3.2637 0.0608694 3.17745C0.0224395 3.0912 0.00177516 2.9981 0.000109425 2.90369C-0.00155631 2.80928 0.0158107 2.7155 0.0511742 2.62795C0.0865376 2.5404 0.139173 2.46087 0.205941 2.3941C0.272708 2.32733 0.35224 2.2747 0.439791 2.23933C0.527343 2.20397 0.62112 2.1866 0.715529 2.18827C0.809938 2.18993 0.903044 2.2106 0.989294 2.24903C1.07554 2.28746 1.15317 2.34287 1.21754 2.41195L3.18066 4.37414L6.4366 0.225697C6.50079 0.156293 6.57832 0.100547 6.66456 0.0617923C6.75079 0.0230379 6.84395 0.00207125 6.93847 0.000145847C7.03299 -0.00177955 7.12692 0.015376 7.21466 0.0505866C7.3024 0.0857973 7.3812 0.138339 7.44816 0.205072Z" fill="#7A4DAD"/>
</svg>
