<svg width="16" height="16" viewBox="0 0 16 16" fill="none" xmlns="http://www.w3.org/2000/svg">
<path d="M5.08715 5.80443H6.08715M9.08715 9.80443H10.0871M10.0871 5.30443L5.08715 10.3044M6.88815 1.09443L5.75915 2.22143C5.57412 2.40679 5.32306 2.5111 5.06115 2.51143H3.28315C3.02111 2.51143 2.76981 2.61553 2.58453 2.80081C2.39924 2.9861 2.29515 3.2374 2.29515 3.49943V5.27743C2.29482 5.53934 2.19051 5.7904 2.00515 5.97543L0.877148 7.10643C0.691936 7.29171 0.587891 7.54296 0.587891 7.80493C0.587891 8.06691 0.691936 8.31816 0.877148 8.50343L2.00715 9.63243C2.09879 9.7241 2.17149 9.83293 2.22107 9.95269C2.27066 10.0725 2.29617 10.2008 2.29615 10.3304V12.1084C2.29615 12.6544 2.73815 13.0964 3.28415 13.0964H5.06215C5.32415 13.0964 5.57515 13.2004 5.76015 13.3864L6.89015 14.5154C7.07542 14.7006 7.32667 14.8047 7.58865 14.8047C7.85062 14.8047 8.10187 14.7006 8.28715 14.5154L9.41615 13.3854C9.60134 13.2004 9.85238 13.0965 10.1141 13.0964H11.8921C12.1542 13.0964 12.4055 12.9923 12.5908 12.8071C12.7761 12.6218 12.8801 12.3705 12.8801 12.1084V10.3304C12.8801 10.0684 12.9841 9.81743 13.1701 9.63243L14.2991 8.50243C14.4844 8.31716 14.5884 8.06591 14.5884 7.80393C14.5884 7.54196 14.4844 7.29071 14.2991 7.10543L13.1691 5.97643C12.9842 5.79124 12.8802 5.5402 12.8801 5.27843V3.50043C12.8801 3.2384 12.7761 2.9871 12.5908 2.80181C12.4055 2.61653 12.1542 2.51243 11.8921 2.51243H10.1141C9.85224 2.5121 9.60118 2.40779 9.41615 2.22243L8.28515 1.09443C8.09987 0.909221 7.84862 0.805176 7.58665 0.805176C7.32467 0.805176 7.07342 0.909221 6.88815 1.09443V1.09443Z" stroke="#F84A13"/>
</svg>
