<svg width="12" height="12" viewBox="0 0 12 12" fill="none" xmlns="http://www.w3.org/2000/svg">
<path d="M8.76375 1.55311C9.07573 1.55285 9.38461 1.61416 9.6723 1.73343C9.96 1.8527 10.2207 2.02754 10.4391 2.2477C10.8892 2.69935 11.1415 3.30786 11.1415 3.94182C11.1415 4.57578 10.8892 5.18429 10.4391 5.63594L6 10.0788L1.56086 5.63594C1.11077 5.18429 0.858474 4.57578 0.858474 3.94182C0.858474 3.30786 1.11077 2.69935 1.56086 2.2477C1.77943 2.0277 2.04015 1.85295 2.32781 1.73366C2.61547 1.61437 2.9243 1.55293 3.23625 1.55293C3.5482 1.55293 3.85702 1.61437 4.14468 1.73366C4.43234 1.85295 4.69307 2.0277 4.91164 2.2477L6 3.34888L7.08408 2.25617C7.30185 2.03339 7.56285 1.8563 7.85145 1.7355C8.14005 1.6147 8.45034 1.55267 8.76375 1.55311ZM8.76375 0.706056C8.33767 0.705699 7.91581 0.78943 7.5229 0.952339C7.12999 1.11525 6.77394 1.35406 6.47562 1.65476L6 2.12911L5.52438 1.65476C5.2257 1.3546 4.86956 1.11621 4.47672 0.953478C4.08388 0.79075 3.66219 0.706943 3.23625 0.706943C2.8103 0.706943 2.38862 0.79075 1.99578 0.953478C1.60294 1.11621 1.2468 1.3546 0.948119 1.65476C0.34047 2.26618 0 3.08898 0 3.94606C0 4.80313 0.34047 5.62593 0.948119 6.23735L6 11.2943L11.0519 6.23735C11.6595 5.62593 12 4.80313 12 3.94606C12 3.08898 11.6595 2.26618 11.0519 1.65476C10.7533 1.35444 10.3972 1.11588 10.0043 0.952999C9.61148 0.790118 9.18976 0.706172 8.76375 0.706056Z" fill="#7C7B7E"/>
</svg>
