<svg width="12" height="12" viewBox="0 0 12 12" fill="none" xmlns="http://www.w3.org/2000/svg">
<path d="M7.5229 0.952156C7.91581 0.789247 8.33767 0.705516 8.76375 0.705872C9.18976 0.705989 9.61148 0.789935 10.0043 0.952816C10.3972 1.1157 10.7533 1.35426 11.0519 1.65458C11.6595 2.266 12 3.0888 12 3.94587C12 4.80294 11.6595 5.62575 11.0519 6.23717L6 11.2941L0.948119 6.23717C0.34047 5.62575 0 4.80294 0 3.94587C0 3.0888 0.34047 2.266 0.948119 1.65458C1.2468 1.35442 1.60294 1.11602 1.99578 0.953294C2.38862 0.790567 2.8103 0.70676 3.23625 0.70676C3.66219 0.70676 4.08388 0.790567 4.47672 0.953294C4.86956 1.11602 5.2257 1.35442 5.52438 1.65458L6 2.12893L6.47562 1.65458C6.77394 1.35387 7.12999 1.11507 7.5229 0.952156Z" fill="#F84A13"/>
</svg>
