<svg width="33" height="31" viewBox="0 0 33 31" fill="none" xmlns="http://www.w3.org/2000/svg">
<path d="M24.1172 3.005C24.9735 3.00427 25.8213 3.17652 26.611 3.51164C27.4006 3.84676 28.1162 4.33801 28.7158 4.9566C29.9512 6.2256 30.6437 7.93536 30.6437 9.7166C30.6437 11.4978 29.9512 13.2076 28.7158 14.4766L16.5312 26.9597L4.34673 14.4766C3.11132 13.2076 2.41883 11.4978 2.41883 9.7166C2.41883 7.93536 3.11132 6.2256 4.34673 4.9566C4.94665 4.33846 5.6623 3.84746 6.45187 3.51229C7.24143 3.17712 8.08909 3.00449 8.94533 3.00449C9.80157 3.00449 10.6492 3.17712 11.4388 3.51229C12.2284 3.84746 12.944 4.33846 13.5439 4.9566L16.5312 8.0506L19.5068 4.9804C20.1046 4.35444 20.8209 3.85688 21.6131 3.51746C22.4052 3.17805 23.2569 3.00375 24.1172 3.005ZM24.1172 0.625003C22.9477 0.624 21.7897 0.859261 20.7113 1.31699C19.6328 1.77472 18.6555 2.44571 17.8367 3.2906L16.5312 4.6234L15.2258 3.2906C14.406 2.44723 13.4284 1.77741 12.3502 1.32019C11.2719 0.862969 10.1145 0.627496 8.94533 0.627496C7.7762 0.627496 6.61876 0.862969 5.5405 1.32019C4.46223 1.77741 3.4847 2.44723 2.66489 3.2906C0.997019 5.00852 0.0625 7.32037 0.0625 9.7285C0.0625 12.1366 0.997019 14.4485 2.66489 16.1664L16.5312 30.375L30.3976 16.1664C32.0655 14.4485 33 12.1366 33 9.7285C33 7.32037 32.0655 5.00852 30.3976 3.2906C29.578 2.44678 28.6006 1.7765 27.5223 1.31885C26.444 0.861194 25.2865 0.625329 24.1172 0.625003Z" fill="#7A4DAD"/>
</svg>
