<svg width="19" height="18" viewBox="0 0 19 18" fill="none" xmlns="http://www.w3.org/2000/svg">
<path d="M13.8759 1.92638C14.3699 1.92597 14.859 2.02303 15.3145 2.21188C15.77 2.40073 16.1828 2.67756 16.5286 3.02615C17.2413 3.74125 17.6408 4.70473 17.6408 5.7085C17.6408 6.71227 17.2413 7.67575 16.5286 8.39085L9.5 15.4253L2.47136 8.39085C1.75871 7.67575 1.35925 6.71227 1.35925 5.7085C1.35925 4.70473 1.75871 3.74125 2.47136 3.02615C2.81743 2.67781 3.23025 2.40113 3.68571 2.21225C4.14117 2.02337 4.63014 1.9261 5.12406 1.9261C5.61798 1.9261 6.10695 2.02337 6.56241 2.21225C7.01787 2.40113 7.43069 2.67781 7.77676 3.02615L9.5 4.76968L11.2165 3.03956C11.5613 2.68682 11.9745 2.40643 12.4315 2.21516C12.8884 2.0239 13.3797 1.92568 13.8759 1.92638ZM13.8759 0.585207C13.2013 0.584642 12.5334 0.717216 11.9113 0.975155C11.2891 1.23309 10.7254 1.61121 10.2531 2.08732L9.5 2.83838L8.74693 2.08732C8.27402 1.61207 7.71014 1.23461 7.08814 0.976958C6.46614 0.719306 5.79847 0.586612 5.12406 0.586612C4.44965 0.586612 3.78198 0.719306 3.15998 0.976958C2.53798 1.23461 1.9741 1.61207 1.50119 2.08732C0.539077 3.0554 0 4.35818 0 5.71521C0 7.07224 0.539077 8.37501 1.50119 9.34309L9.5 17.3499L17.4988 9.34309C18.4609 8.37501 19 7.07224 19 5.71521C19 4.35818 18.4609 3.0554 17.4988 2.08732C17.026 1.61181 16.4622 1.2341 15.8402 0.976201C15.2182 0.718305 14.5505 0.58539 13.8759 0.585207Z" fill="#7C7B7E"/>
</svg>
