<svg width="11" height="12" viewBox="0 0 11 12" fill="none" xmlns="http://www.w3.org/2000/svg">
<path d="M4.12499 0C3.76032 0 3.41058 0.150262 3.15272 0.417731C2.89485 0.6852 2.74999 1.04797 2.74999 1.42622V5.11658C2.99061 5.19431 3.2223 5.30841 3.43749 5.45887V1.42622C3.43749 1.2371 3.50992 1.05571 3.63885 0.921978C3.76778 0.788243 3.94265 0.713112 4.12499 0.713112H6.87499V3.209C6.87499 3.4927 6.98364 3.76477 7.17704 3.96537C7.37044 4.16598 7.63274 4.27867 7.90625 4.27867H10.3125V9.98357C10.3125 10.1727 10.2401 10.3541 10.1111 10.4878C9.9822 10.6216 9.80733 10.6967 9.625 10.6967H5.80937L5.12187 11.4098H9.625C9.98967 11.4098 10.3394 11.2595 10.5973 10.9921C10.8551 10.7246 11 10.3618 11 9.98357V3.86079C10.9998 3.57719 10.891 3.3053 10.6975 3.10489L8.00662 0.313056C7.8133 0.112659 7.55118 6.05299e-05 7.27787 0H4.12499ZM10.1702 3.56556H7.90625C7.81508 3.56556 7.72764 3.52799 7.66318 3.46113C7.59871 3.39426 7.56249 3.30357 7.56249 3.209V0.860726L10.1702 3.56556ZM1.06011 6.80452C1.17822 6.68194 1.31846 6.5847 1.47282 6.51835C1.62718 6.45201 1.79262 6.41786 1.95971 6.41786C2.12679 6.41786 2.29223 6.45201 2.44659 6.51835C2.60095 6.5847 2.74119 6.68194 2.8593 6.80452L3.19618 7.15394C3.26064 7.22078 3.34806 7.25834 3.43921 7.25834C3.53036 7.25834 3.61778 7.22078 3.68224 7.15394L4.01911 6.80452C4.20316 6.61331 4.43938 6.48534 4.69582 6.43789C4.95226 6.39044 5.21656 6.42581 5.45299 6.53922C5.68942 6.65262 5.88659 6.83859 6.01783 7.07198C6.14906 7.30538 6.20805 7.57494 6.1868 7.84423H6.87568C6.89661 7.43363 6.79698 7.0261 6.58994 6.67547C6.38291 6.32483 6.07821 6.04757 5.71608 5.88031C5.35395 5.71306 4.95143 5.66366 4.56167 5.73865C4.17191 5.81365 3.81325 6.0095 3.53305 6.30035L3.43955 6.39733L3.34536 6.30035C3.06516 6.0095 2.7065 5.81365 2.31674 5.73865C1.92698 5.66366 1.52446 5.71306 1.16234 5.88031C0.800209 6.04757 0.495508 6.32483 0.288473 6.67547C0.0814373 7.0261 -0.018195 7.43363 0.00273341 7.84423H0.69161C0.676506 7.65356 0.70165 7.46177 0.765291 7.28221C0.828932 7.10265 0.92954 6.93964 1.06011 6.80452ZM2.3258 9.98357H1.35367L3.19618 11.8947C3.22796 11.9281 3.2658 11.9545 3.30752 11.9726C3.34924 11.9907 3.394 12 3.43921 12C3.48442 12 3.52918 11.9907 3.5709 11.9726C3.61261 11.9545 3.65046 11.9281 3.68224 11.8947L5.52474 9.98357H4.55262L3.43886 11.1388L2.32649 9.98357H2.3258ZM2.71561 7.32794C2.6871 7.26861 2.64321 7.21869 2.58886 7.1838C2.53452 7.14891 2.47187 7.13043 2.40796 7.13043C2.34404 7.13043 2.28139 7.14891 2.22705 7.1838C2.1727 7.21869 2.12881 7.26861 2.1003 7.32794L1.50767 8.55735H0.687484C0.596316 8.55735 0.508882 8.59491 0.444416 8.66178C0.37995 8.72865 0.343734 8.81934 0.343734 8.9139C0.343734 9.00847 0.37995 9.09916 0.444416 9.16603C0.508882 9.23289 0.596316 9.27046 0.687484 9.27046H1.72011C1.78401 9.27059 1.84669 9.25224 1.90109 9.21747C1.9555 9.18271 1.99948 9.1329 2.02811 9.07364L2.40761 8.28494L3.13155 9.78675C3.15779 9.84106 3.19697 9.88752 3.24538 9.92171C3.29379 9.95591 3.34982 9.9767 3.40815 9.98213C3.46648 9.98756 3.52519 9.97744 3.57869 9.95273C3.63219 9.92802 3.67872 9.88955 3.71386 9.84095L4.50793 8.74347L4.91493 9.16634C4.97935 9.233 5.06662 9.27044 5.15762 9.27046H6.18749C6.27866 9.27046 6.3661 9.23289 6.43056 9.16603C6.49503 9.09916 6.53124 9.00847 6.53124 8.9139C6.53124 8.81934 6.49503 8.72865 6.43056 8.66178C6.3661 8.59491 6.27866 8.55735 6.18749 8.55735H5.30062L4.71349 7.94835C4.67864 7.91219 4.6367 7.88422 4.59052 7.86636C4.54434 7.84849 4.49499 7.84113 4.44582 7.84478C4.39666 7.84843 4.34882 7.86301 4.30557 7.88752C4.26231 7.91204 4.22464 7.94591 4.19512 7.98686L3.49799 8.9517L2.71561 7.32794Z" fill="#7A4DAD"/>
</svg>
