<svg width="14" height="23" viewBox="0 0 14 23" fill="none" xmlns="http://www.w3.org/2000/svg">
<path d="M0.496052 3.18229L0.496052 0.993133C0.496052 0.803387 0.714119 0.698601 0.861384 0.814715L13.6282 10.7863C13.7367 10.8707 13.8244 10.9787 13.8848 11.1021C13.9452 11.2255 13.9766 11.3611 13.9766 11.4986C13.9766 11.636 13.9452 11.7716 13.8848 11.895C13.8244 12.0184 13.7367 12.1265 13.6282 12.2108L0.861383 22.1824C0.711285 22.2985 0.49605 22.1937 0.49605 22.004L0.49605 19.8148C0.49605 19.676 0.561186 19.5429 0.668803 19.458L10.8641 11.5L0.668804 3.53913C0.561188 3.45417 0.496052 3.32106 0.496052 3.18229Z" fill="#7C7B7E"/>
</svg>
