<svg width="32" height="33" viewBox="0 0 32 33" fill="none" xmlns="http://www.w3.org/2000/svg">
<path d="M10.7308 15.49H9.76923V17.49H10.7308V15.49ZM22.2692 17.49H23.2308V15.49H22.2692V17.49ZM10.7308 21.486H9.76923V23.486H10.7308V21.486ZM22.2692 23.5H23.2308V21.5H22.2692V23.5ZM10.7308 9.494H9.76923V11.494H10.7308V9.494ZM18.4231 11.5H19.3846V9.5H18.4231V11.5ZM22.2692 2.5L22.95 1.792L22.6673 1.5H22.2692V2.5ZM28.0385 8.5H29V8.086L28.7192 7.792L28.0385 8.5ZM10.7308 17.49H22.2692V15.49H10.7308V17.49ZM10.7308 23.486L22.2692 23.5V21.5L10.7308 21.486V23.486ZM10.7308 11.494L18.4231 11.5V9.5L10.7308 9.494V11.494ZM26.1154 29.5H6.88462V31.5H26.1154V29.5ZM5.92308 28.5V4.5H4V28.5H5.92308ZM6.88462 3.5H22.2692V1.5H6.88462V3.5ZM27.0769 8.5V28.5H29V8.5H27.0769ZM21.5885 3.208L27.3577 9.208L28.7192 7.792L22.95 1.792L21.5885 3.208ZM6.88462 29.5C6.6296 29.5 6.38503 29.3946 6.20471 29.2071C6.02438 29.0196 5.92308 28.7652 5.92308 28.5H4C4 29.2956 4.30391 30.0587 4.84488 30.6213C5.38585 31.1839 6.11957 31.5 6.88462 31.5V29.5ZM26.1154 31.5C26.8804 31.5 27.6141 31.1839 28.1551 30.6213C28.6961 30.0587 29 29.2956 29 28.5H27.0769C27.0769 28.7652 26.9756 29.0196 26.7953 29.2071C26.615 29.3946 26.3704 29.5 26.1154 29.5V31.5ZM5.92308 4.5C5.92308 4.23478 6.02438 3.98043 6.20471 3.79289C6.38503 3.60536 6.6296 3.5 6.88462 3.5V1.5C6.11957 1.5 5.38585 1.81607 4.84488 2.37868C4.30391 2.94129 4 3.70435 4 4.5H5.92308Z" fill="#7A4DAD"/>
</svg>
