<svg width="139" height="26" viewBox="0 0 139 26" fill="none" xmlns="http://www.w3.org/2000/svg">
<path d="M105.684 19.6293V20.7633C107.09 20.7633 108.228 19.6378 108.228 18.248V17.114C106.822 17.114 105.684 18.2395 105.684 19.6293ZM42.7514 6.05525C41.9493 6.05525 41.1904 6.15757 40.4918 6.34515C42.7083 6.67768 45.0196 8.07601 46.4771 9.87509C47.2878 10.7192 47.9002 12.0323 47.9002 13.3624C47.9002 16.0653 45.9079 18.1713 43.0446 18.1713C40.1813 18.1713 38.189 16.3722 38.189 13.3624C38.189 11.0432 39.7501 9.15887 41.9579 8.68991C41.3628 8.46823 40.7591 8.31475 40.1468 8.25507C39.293 8.17833 38.12 8.26359 37.0679 8.94571C36.076 10.1479 35.5068 11.6742 35.5068 13.3624C35.5068 17.6085 38.7324 20.3967 43.036 20.3967C47.3396 20.3967 50.591 17.4551 50.591 13.3624C50.591 9.26971 47.055 6.04673 42.7514 6.04673V6.05525ZM101.449 20.192L95.3261 6.51568H93.0924L86.969 20.192H89.5304L94.1445 9.61077L96.2489 14.4623H94.8604C93.6098 14.4623 92.5921 15.4684 92.5921 16.7047H97.2148L98.7327 20.192H101.441H101.449ZM139 14.539C139 18.7085 136.292 20.4052 133.248 20.4052C129.651 20.4052 127.081 18.4015 127.081 14.4026V6.55831H129.626V13.8996C129.626 16.449 130.747 18.1628 133.248 18.1628C135.438 18.1628 136.473 16.7047 136.473 14.053V8.47675C136.473 7.09548 137.603 5.97852 139 5.97852V14.539ZM115.188 8.79223V12.8423H116.844C118.31 12.8423 119.621 12.1431 119.621 10.7363C119.621 9.66193 119 8.7496 116.93 8.7496C116.456 8.7496 115.878 8.76665 115.188 8.79223ZM112.644 18.2395V6.55831C113.455 6.55831 116.637 6.51568 117.051 6.51568C121.001 6.51568 122.303 8.36591 122.303 10.7192C122.303 13.0725 120.708 14.2236 119.509 14.6158L124.037 20.192H120.958L116.965 15.0847H115.188V20.7548C113.782 20.7548 112.644 19.6293 112.644 18.2395ZM74.9292 6.55831H87.4433C87.4433 7.79464 86.4256 8.80076 85.1751 8.80076H82.1652V20.7633C80.7594 20.7633 79.6209 19.6378 79.6209 18.248V8.80076H74.9206V6.55831H74.9292ZM71.3673 6.55831H68.8231V18.248C68.8231 19.6378 69.9616 20.7633 71.3673 20.7633V6.55831ZM59.7157 20.2347H57.7924L51.8329 6.55831H54.541L58.8446 16.6706L62.5876 8.32328C63.1655 6.91642 64.5454 5.98704 66.0805 5.98704L59.7157 20.2347Z" fill="white"/>
<path d="M24.2049 12.7707C24.5026 12.3276 24.8486 11.9247 25.2349 11.5783C25.2751 11.9167 25.2912 12.255 25.3073 12.6015C24.9452 12.6901 24.5831 12.7465 24.2129 12.7707H24.2049ZM18.2341 23.1402C18.3951 23.4705 18.5319 23.817 18.6365 24.1715C18.3387 24.3326 18.033 24.4776 17.7191 24.6146C17.8237 24.107 18.0008 23.6075 18.2341 23.1402ZM7.07317 2.86049C6.91223 2.53015 6.77544 2.18369 6.67083 1.82918C6.96856 1.66804 7.27434 1.52301 7.58817 1.38604C7.48356 1.88558 7.31457 2.38512 7.07317 2.86049ZM18.6204 1.82918C18.5158 2.19175 18.379 2.53015 18.218 2.86049C17.9847 2.38512 17.8076 1.89364 17.703 1.38604C18.0169 1.52301 18.3226 1.66804 18.6204 1.82918ZM23.7945 18.9827C22.9657 17.2907 22.9174 15.2603 23.7945 13.4717C24.6233 15.1637 24.6716 17.194 23.7945 18.9827ZM23.3922 19.6756C22.2897 21.3354 20.5033 22.3103 18.6204 22.4392C19.7228 20.7794 21.5092 19.8045 23.3922 19.6756ZM17.8157 22.8985C16.7696 24.4615 15.0315 25.5251 13.0439 25.654C14.09 24.0909 15.8281 23.0274 17.8157 22.8985ZM12.2392 25.654C10.2517 25.5251 8.51355 24.4696 7.46746 22.8985C9.45503 23.0274 11.1931 24.0828 12.2392 25.654ZM1.9071 19.6756C3.79006 19.7965 5.57646 20.7794 6.68692 22.4392C4.80396 22.3183 3.01756 21.3434 1.9071 19.6756ZM1.50476 13.4636C2.38991 15.2523 2.34163 17.2827 1.50476 18.9747C0.619606 17.186 0.667887 15.1556 1.50476 13.4636ZM1.50476 7.01795C2.33358 8.70993 2.38186 10.7403 1.50476 12.529C0.675934 10.837 0.627653 8.80662 1.50476 7.01795ZM1.9071 6.31698C3.00952 4.65722 4.79591 3.68231 6.67083 3.5534C5.56841 5.21316 3.78201 6.18807 1.9071 6.31698ZM7.47551 3.1022C8.5216 1.53107 10.2597 0.475593 12.2473 0.34668C11.2012 1.90975 9.46308 2.97329 7.47551 3.1022ZM13.052 0.34668C15.0395 0.475593 16.7696 1.53107 17.8237 3.1022C15.8362 2.97329 14.1061 1.91781 13.052 0.34668ZM23.4002 6.32504C21.5253 6.20418 19.7308 5.22122 18.6284 3.56146C20.5033 3.69037 22.2978 4.66528 23.4002 6.32504ZM23.8025 12.537C22.9174 10.7484 22.9657 8.71799 23.8025 7.026C24.6877 8.81468 24.6394 10.8451 23.8025 12.537ZM18.6204 16.4528C20.5033 16.5736 22.2897 17.5486 23.4002 19.2083C21.4126 19.0794 19.6665 18.0159 18.6204 16.4528ZM6.67083 16.4528C5.62474 18.0239 3.88662 19.0794 1.89905 19.2083C3.00147 17.5486 4.78787 16.5736 6.67083 16.4528ZM6.67083 9.54787C4.79591 9.42701 3.00952 8.45211 1.89905 6.79235C3.88662 6.92126 5.62474 7.9848 6.67083 9.54787ZM18.6204 9.54787C19.6665 7.97674 21.4046 6.92126 23.3922 6.79235C22.2897 8.45211 20.5033 9.42701 18.6204 9.54787ZM22.1851 13.4314C22.5875 13.3266 22.9898 13.2541 23.3922 13.23C22.8772 14.0034 22.1851 14.6802 21.3322 15.1798C20.4792 15.6713 19.5538 15.9371 18.6284 15.9935C19.4653 14.7366 20.7126 13.8262 22.1851 13.4314ZM18.218 22.2136C18.041 21.851 17.8962 21.4643 17.7835 21.0614C17.3892 19.587 17.5501 18.0562 18.218 16.6945C18.6284 17.5244 18.8698 18.459 18.8698 19.45C18.8698 20.441 18.6284 21.3757 18.218 22.2136ZM17.8237 22.4392C16.8984 22.3828 15.973 22.1169 15.112 21.6254C14.259 21.134 13.567 20.4572 13.06 19.6917C15.0395 19.8207 16.7777 20.8842 17.8237 22.4473V22.4392ZM12.2151 21.0695C12.3197 20.6666 12.4726 20.2799 12.6496 19.9173C13.4865 21.6093 13.5348 23.6478 12.6496 25.4364C11.9817 24.0828 11.8208 22.5439 12.2151 21.0695ZM12.2473 19.6917C11.7242 20.4813 11.0322 21.142 10.1873 21.6335C9.33433 22.125 8.4009 22.3909 7.47551 22.4473C8.5216 20.8842 10.2597 19.8207 12.2473 19.6917ZM7.07317 16.7026C7.74106 18.0562 7.90199 19.5951 7.5077 21.0695C7.40309 21.4724 7.25825 21.8591 7.07317 22.2217C6.66278 21.3918 6.42138 20.4491 6.42138 19.4581C6.42138 18.4671 6.66278 17.5324 7.07317 16.7026ZM3.10608 13.4314C4.57865 13.8262 5.82591 14.7366 6.67083 15.9935C5.72935 15.9371 4.80396 15.6632 3.95904 15.1717C3.09803 14.6722 2.406 14.0034 1.89905 13.2219C2.3014 13.2461 2.71178 13.3186 3.10608 13.4233V13.4314ZM3.10608 12.5693C2.70374 12.674 2.3014 12.7465 1.89905 12.7707C2.41405 11.9972 3.10608 11.3204 3.95904 10.8209C4.80396 10.3375 5.7213 10.0635 6.66278 9.99907C5.82591 11.264 4.57865 12.1664 3.10608 12.5612V12.5693ZM7.08122 3.79511C7.25825 4.15768 7.40309 4.54442 7.51575 4.94727C7.91004 6.42172 7.7491 7.95257 7.08122 9.31421C6.67083 8.48433 6.42942 7.54971 6.42942 6.55869C6.42942 5.56767 6.67083 4.63305 7.08122 3.79511ZM7.47551 3.56951C8.4009 3.62591 9.32628 3.8918 10.1873 4.38328C11.0322 4.8667 11.7242 5.53544 12.2473 6.31698C10.2597 6.18807 8.5216 5.13259 7.47551 3.56146V3.56951ZM12.6416 6.09138C12.4645 5.72881 12.3197 5.34207 12.2071 4.93922C11.8128 3.46477 11.9737 1.93393 12.6416 0.572278C13.5267 2.36095 13.4704 4.39939 12.6416 6.09138ZM13.052 6.30892C13.567 5.53544 14.2509 4.8667 15.1039 4.37522C15.9649 3.87568 16.8903 3.6098 17.8157 3.5534C16.7696 5.12453 15.0315 6.18001 13.0439 6.30892H13.052ZM18.21 9.2981C17.5421 7.94451 17.3812 6.40561 17.7755 4.93116C17.8801 4.52831 18.0249 4.14962 18.21 3.779C18.6204 4.61693 18.8618 5.55156 18.8618 6.54258C18.8618 7.5336 18.6284 8.46016 18.21 9.2981ZM22.1771 12.5612C20.6965 12.1664 19.4492 11.256 18.6123 9.99101C19.5377 10.0474 20.4631 10.3133 21.3241 10.8128C22.1851 11.3124 22.8691 11.9811 23.3841 12.7626C22.9818 12.7385 22.5714 12.666 22.1771 12.5612ZM18.21 15.7438C17.7996 14.9139 17.5582 13.9793 17.5582 12.9882C17.5582 11.9972 17.7996 11.0707 18.21 10.2327C18.6204 11.0626 18.8618 11.9972 18.8618 12.9882C18.8618 13.9793 18.6284 14.9058 18.21 15.7438ZM15.0959 17.2666C15.9569 16.767 16.8823 16.5011 17.8076 16.4447C16.7616 18.0159 15.0234 19.0794 13.0278 19.2083C13.5509 18.4187 14.2509 17.758 15.0878 17.2666H15.0959ZM10.1632 17.2666C11.0161 17.758 11.7081 18.4348 12.2231 19.2083C10.2356 19.0794 8.50551 18.0159 7.45942 16.4528C8.3848 16.5092 9.31019 16.7751 10.1712 17.2666H10.1632ZM7.05708 10.2408C7.46746 11.0707 7.70887 12.0053 7.70887 12.9963C7.70887 13.9873 7.47551 14.9139 7.05708 15.7518C6.64669 14.9219 6.40528 13.9873 6.40528 12.9963C6.40528 12.0053 6.64669 11.0787 7.05708 10.2408ZM10.1712 8.72605C9.31019 9.21753 8.3848 9.48341 7.45942 9.53981C8.50551 7.97674 10.2436 6.9132 12.2231 6.78429C11.7081 7.55777 11.0242 8.22651 10.1632 8.72605H10.1712ZM15.0878 8.72605C14.2429 8.24262 13.5509 7.57388 13.0278 6.78429C15.0154 6.9132 16.7535 7.96868 17.7996 9.53981C16.8742 9.48341 15.9488 9.22559 15.0878 8.72605ZM13.0359 13.23C15.0234 13.3589 16.7535 14.4224 17.7996 15.9855C15.9247 15.8646 14.1383 14.8897 13.0359 13.23ZM17.8076 9.99907C16.7616 11.5702 15.0234 12.6337 13.0278 12.7546C14.1302 11.0948 15.9247 10.1199 17.8076 9.99907ZM12.6335 13.4636C13.3014 14.8172 13.4624 16.3561 13.0681 17.8306C12.9635 18.2334 12.8186 18.6201 12.6335 18.9827C11.7967 17.2907 11.7484 15.2523 12.6335 13.4636ZM12.6335 12.5209C11.7484 10.7323 11.8047 8.69382 12.6335 7.00183C12.8106 7.3644 12.9554 7.75114 13.0681 8.15399C13.4624 9.62844 13.3014 11.1593 12.6335 12.5209ZM8.66644 10.1924C10.139 10.5872 11.3863 11.4896 12.2231 12.7546C10.2356 12.6257 8.49746 11.5621 7.45137 9.99101C7.86176 10.0152 8.2641 10.0877 8.66644 10.1924ZM7.45137 15.9855C8.49746 14.4143 10.2356 13.3508 12.2231 13.2219C11.3863 14.4788 10.139 15.3893 8.66644 15.7841C8.2641 15.8888 7.86176 15.9613 7.45137 15.9855ZM20.1654 2.80409C19.6745 2.96523 19.1676 3.06192 18.6365 3.09415C18.8376 2.78798 19.071 2.49792 19.3285 2.23204C19.6182 2.40929 19.8998 2.60266 20.1734 2.80409H20.1654ZM5.9788 2.23204C6.2363 2.49792 6.46966 2.78798 6.67083 3.09415C6.13974 3.06192 5.62474 2.96523 5.14193 2.80409C5.41552 2.60266 5.69716 2.40929 5.9788 2.23204ZM0.0724215 11.5863C0.45867 11.9328 0.804684 12.3276 1.09437 12.7788C0.724215 12.7546 0.354061 12.6982 0 12.6096C0.00804684 12.2631 0.0321873 11.9247 0.0724215 11.5863ZM0 13.4072C0.362108 13.3186 0.724215 13.2622 1.09437 13.238C0.796637 13.6812 0.450623 14.084 0.0724215 14.4224C0.0321873 14.084 0.00804684 13.7456 0 13.4072H0ZM5.13388 23.2046C5.62474 23.0435 6.13974 22.9468 6.67083 22.9146C6.46161 23.2207 6.2363 23.5108 5.9788 23.7767C5.68911 23.5994 5.40747 23.4061 5.13388 23.2046ZM6.67083 24.1795C6.77544 23.817 6.91223 23.4786 7.07317 23.1482C7.30653 23.6236 7.48356 24.1231 7.58817 24.6227C7.27434 24.4857 6.96856 24.3407 6.67083 24.1795ZM19.3205 23.7767C19.063 23.5108 18.8296 23.2207 18.6284 22.9146C19.1595 22.9468 19.6745 23.0435 20.1654 23.2046C19.8918 23.4061 19.6101 23.5994 19.3205 23.7767ZM25.2268 14.4224C24.8406 14.076 24.4946 13.6812 24.1968 13.23C24.567 13.2541 24.9371 13.3105 25.2912 13.3992C25.2832 13.7456 25.259 14.084 25.2188 14.4143" fill="white"/>
</svg>
