<svg width="12" height="12" viewBox="0 0 12 12" fill="none" xmlns="http://www.w3.org/2000/svg">
<path fill-rule="evenodd" clip-rule="evenodd" d="M1.4141 0.383604C1.54533 0.252571 1.70291 0.150923 1.8764 0.0853968C2.04989 0.0198706 2.23532 -0.00803769 2.42041 0.00352147C2.6055 0.0150806 2.78601 0.0658432 2.95 0.152445C3.11399 0.239047 3.2577 0.359511 3.3716 0.505854L4.71785 2.23535C4.9646 2.5526 5.0516 2.96585 4.9541 3.35585L4.54385 4.99835C4.52264 5.08343 4.52379 5.17254 4.54718 5.25704C4.57057 5.34154 4.61541 5.41855 4.67735 5.4806L6.5201 7.32335C6.58223 7.38542 6.65937 7.43034 6.74402 7.45373C6.82866 7.47713 6.91792 7.4782 7.0031 7.45686L8.64485 7.04661C8.83731 6.99848 9.0382 6.99475 9.23231 7.03567C9.42643 7.0766 9.6087 7.16113 9.76535 7.28286L11.4949 8.62836C12.1166 9.1121 12.1736 10.0309 11.6171 10.5866L10.8416 11.3621C10.2866 11.9171 9.4571 12.1609 8.68385 11.8886C6.70474 11.1922 4.90781 10.0592 3.42635 8.5736C1.94082 7.09237 0.807809 5.2957 0.111353 3.31685C-0.160147 2.54435 0.0836032 1.7141 0.638603 1.1591L1.4141 0.383604ZM9.48485 0.484854C9.51969 0.449932 9.56107 0.422225 9.60663 0.40332C9.65219 0.384415 9.70103 0.374684 9.75035 0.374684C9.79968 0.374684 9.84852 0.384415 9.89408 0.40332C9.93964 0.422225 9.98102 0.449932 10.0159 0.484854L11.8909 2.35985C11.9258 2.39469 11.9535 2.43607 11.9724 2.48163C11.9913 2.52719 12.001 2.57603 12.001 2.62535C12.001 2.67468 11.9913 2.72352 11.9724 2.76908C11.9535 2.81464 11.9258 2.85602 11.8909 2.89085L10.0159 4.76585C9.94544 4.83627 9.84994 4.87583 9.75035 4.87583C9.65077 4.87583 9.55527 4.83627 9.48485 4.76585C9.41444 4.69544 9.37488 4.59994 9.37488 4.50035C9.37488 4.40077 9.41444 4.30527 9.48485 4.23485L10.7201 3.00035H7.12535C7.0259 3.00035 6.93051 2.96085 6.86019 2.89052C6.78986 2.82019 6.75035 2.72481 6.75035 2.62535C6.75035 2.5259 6.78986 2.43052 6.86019 2.36019C6.93051 2.28986 7.0259 2.25035 7.12535 2.25035H10.7201L9.48485 1.01585C9.44993 0.98102 9.42222 0.939638 9.40332 0.89408C9.38441 0.848521 9.37468 0.79968 9.37468 0.750354C9.37468 0.701029 9.38441 0.652188 9.40332 0.606629C9.42222 0.56107 9.44993 0.519689 9.48485 0.484854Z" fill="white"/>
</svg>
