<svg width="14" height="23" viewBox="0 0 14 23" fill="none" xmlns="http://www.w3.org/2000/svg">
<path d="M13.5039 19.8177V22.0069C13.5039 22.1966 13.2859 22.3014 13.1386 22.1853L0.371818 12.2137C0.263346 12.1293 0.175575 12.0213 0.115199 11.8979C0.0548229 11.7745 0.0234375 11.6389 0.0234375 11.5014C0.0234375 11.364 0.0548229 11.2284 0.115199 11.105C0.175575 10.9816 0.263346 10.8735 0.371818 10.7892L13.1386 0.817606C13.2887 0.701492 13.5039 0.806276 13.5039 0.996023V3.18518C13.5039 3.32395 13.4388 3.45706 13.3312 3.54202L3.13588 11.5L13.3312 19.4609C13.4388 19.5458 13.5039 19.6789 13.5039 19.8177Z" fill="#7C7B7E"/>
</svg>
