<svg width="12" height="12" viewBox="0 0 12 12" fill="none" xmlns="http://www.w3.org/2000/svg">
<g clip-path="url(#clip0_530_5316)">
<path d="M10.7467 2.34082C11.0305 2.70732 11.2669 3.10929 11.4679 3.5349L6.00588 7.56643L3.71228 6.12407V4.39796L5.99405 5.8285L10.7467 2.34082Z" fill="#7C7B7E"/>
<path d="M1.38325 6.00564C1.38325 5.92287 1.38326 5.85194 1.39508 5.76918L0.0118226 5.69824C0.0118226 5.79282 0 5.89923 0 5.99381C0 7.64901 0.673891 9.15043 1.76158 10.2382L2.74286 9.25686C1.90345 8.42931 1.38325 7.28248 1.38325 6.00564Z" fill="#7C7B7E"/>
<path d="M5.99405 1.39497C6.07681 1.39497 6.14775 1.39497 6.23051 1.4068L6.30144 0.0235415C6.20686 0.0235415 6.10046 0.0117188 6.00588 0.0117188C4.3507 0.0117188 2.84922 0.68561 1.76154 1.7733L2.74282 2.75458C3.57041 1.91517 4.72902 1.39497 5.99405 1.39497Z" fill="#7C7B7E"/>
<path d="M5.99409 10.6164C5.91133 10.6164 5.8404 10.6164 5.75764 10.6046L5.68671 11.9879C5.78128 11.9879 5.88769 11.9997 5.98227 11.9997C7.63747 11.9997 9.1389 11.3258 10.2266 10.2381L9.24532 9.25684C8.41777 10.1081 7.27094 10.6164 5.99409 10.6164Z" fill="#7C7B7E"/>
<path d="M8.59515 2.19901L9.7656 1.33596C8.73697 0.508375 7.42468 0 5.99414 0V1.38326C6.9636 1.39507 7.8621 1.69064 8.59515 2.19901Z" fill="#7C7B7E"/>
<path d="M12 6.00555C12 5.63905 11.9646 5.28437 11.9055 4.92969L10.6168 5.88733C10.6168 5.92279 10.6168 5.97009 10.6168 6.00555C10.6168 7.36515 10.0256 8.58289 9.09167 9.42229L10.0257 10.4508C11.2316 9.36319 12 7.76712 12 6.00555Z" fill="#7C7B7E"/>
<path d="M5.99409 10.6169C4.63448 10.6169 3.41675 10.0258 2.57734 9.0918L1.54877 10.0258C2.64827 11.2435 4.23251 12.0002 5.99409 12.0002V10.6169Z" fill="#7C7B7E"/>
<path d="M2.90837 2.58912L1.97438 1.56055C0.756652 2.66005 0 4.24429 0 6.00586H1.38325C1.38325 4.65808 1.97438 3.42853 2.90837 2.58912Z" fill="#7C7B7E"/>
</g>
<defs>
<clipPath id="clip0_530_5316">
<rect width="12" height="12" fill="white"/>
</clipPath>
</defs>
</svg>
