<svg width="12" height="12" viewBox="0 0 12 12" fill="none" xmlns="http://www.w3.org/2000/svg">
<g clip-path="url(#clip0_184_16251)">
<path d="M10.7469 2.34082C11.0306 2.70732 11.2671 3.10929 11.4681 3.5349L6.006 7.56643L3.7124 6.12407V4.39796L5.99417 5.8285L10.7469 2.34082Z" fill="white"/>
<path d="M1.38325 6.00564C1.38325 5.92287 1.38326 5.85194 1.39508 5.76918L0.0118226 5.69824C0.0118226 5.79282 0 5.89923 0 5.99381C0 7.64901 0.673891 9.15043 1.76158 10.2382L2.74286 9.25686C1.90345 8.42931 1.38325 7.28248 1.38325 6.00564Z" fill="white"/>
<path d="M5.99423 1.39497C6.07699 1.39497 6.14793 1.39497 6.23069 1.4068L6.30163 0.0235415C6.20704 0.0235415 6.10064 0.0117188 6.00606 0.0117188C4.35088 0.0117188 2.84941 0.68561 1.76172 1.7733L2.743 2.75458C3.57059 1.91517 4.72921 1.39497 5.99423 1.39497Z" fill="white"/>
<path d="M5.99391 10.6164C5.91115 10.6164 5.84021 10.6164 5.75746 10.6046L5.68652 11.9879C5.7811 11.9879 5.88751 11.9997 5.98208 11.9997C7.63729 11.9997 9.13871 11.3258 10.2264 10.2381L9.24514 9.25684C8.41759 10.1081 7.27076 10.6164 5.99391 10.6164Z" fill="white"/>
<path d="M8.59515 2.19901L9.7656 1.33596C8.73697 0.508375 7.42468 0 5.99414 0V1.38326C6.9636 1.39507 7.8621 1.69064 8.59515 2.19901Z" fill="white"/>
<path d="M12.0001 6.00555C12.0001 5.63905 11.9647 5.28437 11.9056 4.92969L10.6169 5.88733C10.6169 5.92279 10.6169 5.97009 10.6169 6.00555C10.6169 7.36515 10.0258 8.58289 9.0918 9.42229L10.0258 10.4508C11.2317 9.36319 12.0001 7.76712 12.0001 6.00555Z" fill="white"/>
<path d="M5.99415 10.6169C4.63455 10.6169 3.41681 10.0258 2.5774 9.0918L1.54883 10.0258C2.64834 11.2435 4.23258 12.0002 5.99415 12.0002V10.6169Z" fill="white"/>
<path d="M2.90837 2.58912L1.97438 1.56055C0.756652 2.66005 0 4.24429 0 6.00586H1.38325C1.38325 4.65808 1.97438 3.42853 2.90837 2.58912Z" fill="white"/>
</g>
<defs>
<clipPath id="clip0_184_16251">
<rect width="12" height="12" fill="white"/>
</clipPath>
</defs>
</svg>
