<svg width="13" height="10" viewBox="0 0 13 10" fill="none" xmlns="http://www.w3.org/2000/svg">
<path d="M1.95002 0.799805C1.67155 0.799805 1.40448 0.910429 1.20756 1.10734C1.01065 1.30426 0.900024 1.57133 0.900024 1.8498V3.2498C0.900024 3.52828 1.01065 3.79535 1.20756 3.99227C1.40448 4.18918 1.67155 4.2998 1.95002 4.2998H3.35002C3.6285 4.2998 3.89557 4.18918 4.09249 3.99227C4.2894 3.79535 4.40002 3.52828 4.40002 3.2498V1.8498C4.40002 1.57133 4.2894 1.30426 4.09249 1.10734C3.89557 0.910429 3.6285 0.799805 3.35002 0.799805H1.95002ZM1.60002 1.8498C1.60002 1.75698 1.6369 1.66795 1.70254 1.60232C1.76817 1.53668 1.8572 1.4998 1.95002 1.4998H3.35002C3.44285 1.4998 3.53187 1.53668 3.59751 1.60232C3.66315 1.66795 3.70002 1.75698 3.70002 1.8498V3.2498C3.70002 3.34263 3.66315 3.43165 3.59751 3.49729C3.53187 3.56293 3.44285 3.5998 3.35002 3.5998H1.95002C1.8572 3.5998 1.76817 3.56293 1.70254 3.49729C1.6369 3.43165 1.60002 3.34263 1.60002 3.2498V1.8498ZM6.15002 1.4998C6.0572 1.4998 5.96817 1.53668 5.90254 1.60232C5.8369 1.66795 5.80002 1.75698 5.80002 1.8498C5.80002 1.94263 5.8369 2.03165 5.90254 2.09729C5.96817 2.16293 6.0572 2.1998 6.15002 2.1998H11.75C11.8428 2.1998 11.9319 2.16293 11.9975 2.09729C12.0631 2.03165 12.1 1.94263 12.1 1.8498C12.1 1.75698 12.0631 1.66795 11.9975 1.60232C11.9319 1.53668 11.8428 1.4998 11.75 1.4998H6.15002ZM6.15002 2.8998C6.0572 2.8998 5.96817 2.93668 5.90254 3.00232C5.8369 3.06795 5.80002 3.15698 5.80002 3.2498C5.80002 3.34263 5.8369 3.43165 5.90254 3.49729C5.96817 3.56293 6.0572 3.5998 6.15002 3.5998H10.35C10.4428 3.5998 10.5319 3.56293 10.5975 3.49729C10.6631 3.43165 10.7 3.34263 10.7 3.2498C10.7 3.15698 10.6631 3.06795 10.5975 3.00232C10.5319 2.93668 10.4428 2.8998 10.35 2.8998H6.15002ZM1.95002 5.6998C1.67155 5.6998 1.40448 5.81043 1.20756 6.00734C1.01065 6.20425 0.900024 6.47133 0.900024 6.7498V8.1498C0.900024 8.42828 1.01065 8.69535 1.20756 8.89227C1.40448 9.08918 1.67155 9.1998 1.95002 9.1998H3.35002C3.6285 9.1998 3.89557 9.08918 4.09249 8.89227C4.2894 8.69535 4.40002 8.42828 4.40002 8.1498V6.7498C4.40002 6.47133 4.2894 6.20425 4.09249 6.00734C3.89557 5.81043 3.6285 5.6998 3.35002 5.6998H1.95002ZM1.60002 6.7498C1.60002 6.65698 1.6369 6.56795 1.70254 6.50232C1.76817 6.43668 1.8572 6.3998 1.95002 6.3998H3.35002C3.44285 6.3998 3.53187 6.43668 3.59751 6.50232C3.66315 6.56795 3.70002 6.65698 3.70002 6.7498V8.1498C3.70002 8.24263 3.66315 8.33165 3.59751 8.39729C3.53187 8.46293 3.44285 8.4998 3.35002 8.4998H1.95002C1.8572 8.4998 1.76817 8.46293 1.70254 8.39729C1.6369 8.33165 1.60002 8.24263 1.60002 8.1498V6.7498ZM6.15002 6.3998C6.0572 6.3998 5.96817 6.43668 5.90254 6.50232C5.8369 6.56795 5.80002 6.65698 5.80002 6.7498C5.80002 6.84263 5.8369 6.93165 5.90254 6.99729C5.96817 7.06293 6.0572 7.0998 6.15002 7.0998H11.75C11.8428 7.0998 11.9319 7.06293 11.9975 6.99729C12.0631 6.93165 12.1 6.84263 12.1 6.7498C12.1 6.65698 12.0631 6.56795 11.9975 6.50232C11.9319 6.43668 11.8428 6.3998 11.75 6.3998H6.15002ZM6.15002 7.7998C6.0572 7.7998 5.96817 7.83668 5.90254 7.90232C5.8369 7.96795 5.80002 8.05698 5.80002 8.1498C5.80002 8.24263 5.8369 8.33165 5.90254 8.39729C5.96817 8.46293 6.0572 8.4998 6.15002 8.4998H10.35C10.4428 8.4998 10.5319 8.46293 10.5975 8.39729C10.6631 8.33165 10.7 8.24263 10.7 8.1498C10.7 8.05698 10.6631 7.96795 10.5975 7.90232C10.5319 7.83668 10.4428 7.7998 10.35 7.7998H6.15002Z" fill="#7A4DAD"/>
</svg>
