<svg width="17" height="17" viewBox="0 0 17 17" fill="none" xmlns="http://www.w3.org/2000/svg">
<path d="M8.63742 11.2852C7.43016 11.2852 6.67445 12.1378 6.67445 13.1897C6.67445 14.2429 7.43016 15.0955 8.63742 15.0955C9.84602 15.0955 10.6004 14.2429 10.6004 13.1897C10.6004 12.1378 9.84469 11.2852 8.63742 11.2852ZM8.63742 14.1791C8.01055 14.1791 7.61742 13.7369 7.61742 13.1897C7.61742 12.6438 8.00922 12.2002 8.63742 12.2002C9.26562 12.2002 9.65742 12.6438 9.65742 13.1897C9.65742 13.7369 9.2643 14.1791 8.63742 14.1791ZM12.5713 11.321H11.2312C11.2286 11.321 11.2273 11.3237 11.2246 11.325H10.9882C10.9444 11.325 10.9085 11.3609 10.9085 11.4047V14.9773C10.9085 15.0212 10.9444 15.057 10.9882 15.057H11.7638C11.8077 15.057 11.8435 15.0212 11.8435 14.9773V13.8418H12.574C13.2752 13.8418 13.8463 13.2773 13.8463 12.5827C13.8437 11.8868 13.2726 11.321 12.5713 11.321ZM12.493 13.098C12.4863 13.098 12.4797 13.1007 12.473 13.1007H11.8555L11.8355 13.0795V12.082L11.8555 12.0621H12.473C12.481 12.0621 12.4877 12.0634 12.4956 12.0648C12.7612 12.078 12.9738 12.3038 12.9738 12.5814C12.9738 12.8603 12.7599 13.0874 12.493 13.098ZM6.70234 12.0395V11.402C6.70234 11.3582 6.66648 11.3223 6.62266 11.3223H3.23594C3.19211 11.3223 3.15625 11.3582 3.15625 11.402V12.0395C3.15625 12.0834 3.19211 12.1192 3.23594 12.1192H4.4618V14.976C4.4618 15.0198 4.49766 15.0557 4.54148 15.0557H5.31711C5.36094 15.0557 5.3968 15.0198 5.3968 14.976V12.1192H6.62266C6.66648 12.1192 6.70234 12.0847 6.70234 12.0395Z" fill="#2982EA"/>
<path d="M8.50211 1.51807L12.9925 7.64205H10.1902V9.79096H6.84062V7.64338H4.01172L8.50211 1.51807Z" fill="#2982EA"/>
</svg>
