<svg width="13" height="12" viewBox="0 0 13 12" fill="none" xmlns="http://www.w3.org/2000/svg">
<path fill-rule="evenodd" clip-rule="evenodd" d="M9.34352 11.3748C9.45126 11.3748 9.55458 11.332 9.63076 11.2558C9.70695 11.1797 9.74974 11.0763 9.74974 10.9686V1.38755L12.3057 3.94429C12.3819 4.02057 12.4854 4.06342 12.5933 4.06342C12.7011 4.06342 12.8046 4.02057 12.8809 3.94429C12.9571 3.86801 13 3.76456 13 3.65669C13 3.54882 12.9571 3.44536 12.8809 3.36909L9.63113 0.119342C9.59339 0.0815121 9.54857 0.0514984 9.49922 0.0310198C9.44986 0.0105412 9.39696 0 9.34352 0C9.29009 0 9.23719 0.0105412 9.18784 0.0310198C9.13848 0.0514984 9.09366 0.0815121 9.05592 0.119342L5.80618 3.36909C5.7299 3.44536 5.68705 3.54882 5.68705 3.65669C5.68705 3.76456 5.7299 3.86801 5.80618 3.94429C5.88246 4.02057 5.98591 4.06342 6.09378 4.06342C6.20165 4.06342 6.30511 4.02057 6.38138 3.94429L8.93731 1.38755V10.9686C8.93731 11.0763 8.98011 11.1797 9.05629 11.2558C9.13247 11.332 9.23579 11.3748 9.34352 11.3748ZM3.65647 0.000726132C3.76421 0.000726132 3.86753 0.043524 3.94371 0.119705C4.01989 0.195885 4.06269 0.299208 4.06269 0.406944V9.988L6.61862 7.43126C6.69489 7.35499 6.79835 7.31214 6.90622 7.31214C7.01409 7.31214 7.11754 7.35499 7.19382 7.43126C7.2701 7.50754 7.31295 7.61099 7.31295 7.71887C7.31295 7.82674 7.2701 7.93019 7.19382 8.00647L3.94408 11.2562C3.90634 11.294 3.86152 11.3241 3.81216 11.3445C3.76281 11.365 3.70991 11.3756 3.65647 11.3756C3.60304 11.3756 3.55014 11.365 3.50078 11.3445C3.45143 11.3241 3.40661 11.294 3.36887 11.2562L0.119129 8.00647C0.0428519 7.93019 -2.54155e-09 7.82674 0 7.71887C2.54155e-09 7.61099 0.0428519 7.50754 0.119129 7.43126C0.195406 7.35499 0.298859 7.31214 0.406731 7.31214C0.514603 7.31214 0.618056 7.35499 0.694333 7.43126L3.25026 9.988V0.406944C3.25026 0.299208 3.29305 0.195885 3.36924 0.119705C3.44542 0.043524 3.54874 0.000726132 3.65647 0.000726132Z" fill="#7A4DAD"/>
</svg>
