<svg width="14" height="14" viewBox="0 0 14 14" fill="none" xmlns="http://www.w3.org/2000/svg">
<path fill-rule="evenodd" clip-rule="evenodd" d="M12.8539 1.14592C12.9005 1.19236 12.9374 1.24754 12.9626 1.30828C12.9878 1.36903 13.0008 1.43415 13.0008 1.49992C13.0008 1.56568 12.9878 1.63081 12.9626 1.69155C12.9374 1.7523 12.9005 1.80747 12.8539 1.85392L1.85392 12.8539C1.76003 12.9478 1.63269 13.0005 1.49992 13.0005C1.36714 13.0005 1.2398 12.9478 1.14592 12.8539C1.05203 12.76 0.999286 12.6327 0.999286 12.4999C0.999286 12.3671 1.05203 12.2398 1.14592 12.1459L12.1459 1.14592C12.1924 1.09935 12.2475 1.06241 12.3083 1.0372C12.369 1.012 12.4341 0.999023 12.4999 0.999023C12.5657 0.999023 12.6308 1.012 12.6916 1.0372C12.7523 1.06241 12.8075 1.09935 12.8539 1.14592Z" fill="white"/>
<path fill-rule="evenodd" clip-rule="evenodd" d="M1.14592 1.14592C1.09935 1.19236 1.06241 1.24754 1.0372 1.30828C1.012 1.36903 0.999023 1.43415 0.999023 1.49992C0.999023 1.56568 1.012 1.63081 1.0372 1.69155C1.06241 1.7523 1.09935 1.80747 1.14592 1.85392L12.1459 12.8539C12.2398 12.9478 12.3671 13.0005 12.4999 13.0005C12.6327 13.0005 12.76 12.9478 12.8539 12.8539C12.9478 12.76 13.0005 12.6327 13.0005 12.4999C13.0005 12.3671 12.9478 12.2398 12.8539 12.1459L1.85392 1.14592C1.80747 1.09935 1.7523 1.06241 1.69155 1.0372C1.63081 1.012 1.56568 0.999023 1.49992 0.999023C1.43415 0.999023 1.36903 1.012 1.30828 1.0372C1.24754 1.06241 1.19236 1.09935 1.14592 1.14592Z" fill="white"/>
<path fill-rule="evenodd" clip-rule="evenodd" d="M12.8539 1.14592C12.9005 1.19236 12.9374 1.24754 12.9626 1.30828C12.9878 1.36903 13.0008 1.43415 13.0008 1.49992C13.0008 1.56568 12.9878 1.63081 12.9626 1.69155C12.9374 1.7523 12.9005 1.80747 12.8539 1.85392L1.85392 12.8539C1.76003 12.9478 1.63269 13.0005 1.49992 13.0005C1.36714 13.0005 1.2398 12.9478 1.14592 12.8539C1.05203 12.76 0.999286 12.6327 0.999286 12.4999C0.999286 12.3671 1.05203 12.2398 1.14592 12.1459L12.1459 1.14592C12.1924 1.09935 12.2475 1.06241 12.3083 1.0372C12.369 1.012 12.4341 0.999023 12.4999 0.999023C12.5657 0.999023 12.6308 1.012 12.6916 1.0372C12.7523 1.06241 12.8075 1.09935 12.8539 1.14592Z" stroke="white"/>
<path fill-rule="evenodd" clip-rule="evenodd" d="M1.14592 1.14592C1.09935 1.19236 1.06241 1.24754 1.0372 1.30828C1.012 1.36903 0.999023 1.43415 0.999023 1.49992C0.999023 1.56568 1.012 1.63081 1.0372 1.69155C1.06241 1.7523 1.09935 1.80747 1.14592 1.85392L12.1459 12.8539C12.2398 12.9478 12.3671 13.0005 12.4999 13.0005C12.6327 13.0005 12.76 12.9478 12.8539 12.8539C12.9478 12.76 13.0005 12.6327 13.0005 12.4999C13.0005 12.3671 12.9478 12.2398 12.8539 12.1459L1.85392 1.14592C1.80747 1.09935 1.7523 1.06241 1.69155 1.0372C1.63081 1.012 1.56568 0.999023 1.49992 0.999023C1.43415 0.999023 1.36903 1.012 1.30828 1.0372C1.24754 1.06241 1.19236 1.09935 1.14592 1.14592Z" stroke="white"/>
</svg>
